<svg width="38" height="49" viewBox="0 0 38 49" fill="none" xmlns="http://www.w3.org/2000/svg">
<path d="M17.2322 47.791C18.2085 48.7673 19.7915 48.7673 20.7678 47.791L36.6777 31.8811C37.654 30.9048 37.654 29.3219 36.6777 28.3456C35.7014 27.3693 34.1184 27.3693 33.1421 28.3456L19 42.4877L4.85786 28.3456C3.88155 27.3693 2.29864 27.3693 1.32233 28.3456C0.34602 29.3219 0.34602 30.9048 1.32233 31.8811L17.2322 47.791ZM21.5 2.97675C21.5 1.59603 20.3807 0.476746 19 0.476746C17.6193 0.476746 16.5 1.59603 16.5 2.97675H21.5ZM21.5 46.0232L21.5 2.97675H16.5L16.5 46.0232H21.5Z" fill="#F5F5F5"/>
</svg>
