<svg width="123" height="123" viewBox="0 0 123 123" fill="none" xmlns="http://www.w3.org/2000/svg">
<rect x="0.416382" y="0.491211" width="122.509" height="122.509" rx="50" fill="#9DB7D6"/>
<path d="M62.1174 30.7052C49.2119 30.7052 36.9568 29.5572 32.2758 41.5706C30.3423 46.5324 30.6231 52.9762 30.6231 62.203C30.6231 70.2999 30.3637 77.9095 32.2758 82.8322C36.9461 94.8527 49.3008 93.7011 62.1102 93.7011C74.4685 93.7011 87.2107 94.9878 91.9484 82.8322C93.8854 77.8205 93.6012 71.4726 93.6012 62.203C93.6012 49.8983 94.2802 41.9545 88.3124 35.9904C82.2703 29.9481 74.099 30.7052 62.1034 30.7052H62.1174ZM59.2953 36.3814C86.2154 36.3387 89.6418 33.346 87.7508 74.9202C87.079 89.6243 75.8832 88.0107 62.1212 88.0107C37.0279 88.0107 36.3064 87.2928 36.3064 62.189C36.3064 36.7936 38.2968 36.3956 59.2953 36.3743V36.3814ZM78.9292 41.6097C76.8427 41.6097 75.1509 43.3015 75.1509 45.3879C75.1509 47.4742 76.8427 49.1661 78.9292 49.1661C81.0157 49.1661 82.7074 47.4742 82.7074 45.3879C82.7074 43.3015 81.0157 41.6097 78.9292 41.6097ZM62.1174 46.0276C53.1856 46.0276 45.9456 53.2713 45.9456 62.203C45.9456 71.1352 53.1856 78.375 62.1174 78.375C71.0493 78.375 78.286 71.1352 78.286 62.203C78.286 53.2713 71.0493 46.0276 62.1174 46.0276ZM62.1174 51.7038C75.9968 51.7038 76.0145 72.7023 62.1174 72.7023C48.2416 72.7023 48.2203 51.7038 62.1174 51.7038Z" fill="#212E3D"/>
</svg>
