<svg width="123" height="123" viewBox="0 0 123 123" fill="none" xmlns="http://www.w3.org/2000/svg">
<rect x="0.416382" width="122.509" height="122.509" rx="50" fill="#9DB7D6"/>
<path d="M65.7362 78.3331C61.9286 78.0385 60.3287 76.1505 57.3426 74.3381C55.7016 82.9485 53.6958 91.2027 47.7552 95.5151C45.9193 82.5004 50.4468 72.7257 52.5495 62.3497C48.9654 56.3168 52.9802 44.1733 60.5398 47.1657C69.8436 50.8448 52.4847 69.5986 64.1378 71.9408C76.304 74.3865 81.2703 50.8313 73.7253 43.1696C62.8243 32.108 41.995 42.9183 44.5564 58.7533C45.1804 62.6245 49.1809 63.7998 46.1545 69.1417C39.1778 67.5965 37.0967 62.0939 37.3643 54.7583C37.7961 42.7504 48.1538 34.3426 58.5429 33.1791C71.6821 31.7085 84.0142 38.0038 85.7161 50.3627C87.6312 64.3115 79.7844 79.4177 65.7362 78.3331Z" fill="#212E3D"/>
</svg>
