<svg width="123" height="123" viewBox="0 0 123 123" fill="none" xmlns="http://www.w3.org/2000/svg">
<rect x="0.491089" y="0.491211" width="122.509" height="122.509" rx="50" fill="#9DB7D6"/>
<path d="M92.5961 47.5765C90.4378 48.5334 88.1161 49.1808 85.6812 49.4698C88.1672 47.9803 90.075 45.6237 90.9755 42.8109C88.6493 44.1909 86.0718 45.1919 83.3308 45.7313C81.1349 43.3926 78.006 41.9312 74.5414 41.9312C67.8941 41.9312 62.5031 47.3224 62.5031 53.9694C62.5031 54.9132 62.6099 55.8316 62.8162 56.7133C52.8113 56.2112 43.9402 51.419 38.0023 44.1333C36.9661 45.9111 36.3718 47.9803 36.3718 50.1863C36.3718 54.3618 38.4988 58.0483 41.7273 60.2066C39.7548 60.1446 37.8971 59.6031 36.2749 58.699C36.274 58.7503 36.274 58.8016 36.274 58.8517C36.274 64.6846 40.4254 69.5498 45.9315 70.655C44.9224 70.9316 43.8567 71.0778 42.7605 71.0778C41.9831 71.0778 41.2299 71.0033 40.4955 70.8634C42.027 75.6449 46.4721 79.1256 51.7411 79.2235C47.6202 82.4529 42.4301 84.3768 36.7884 84.3768C35.8187 84.3768 34.8582 84.3204 33.9183 84.208C39.2431 87.625 45.5725 89.6172 52.3706 89.6172C74.5136 89.6172 86.6231 71.2737 86.6231 55.3638C86.6231 54.8422 86.6115 54.3225 86.588 53.8072C88.9421 52.1102 90.9827 49.9906 92.5961 47.5765Z" fill="#212E3D"/>
</svg>
