<svg width="123" height="123" viewBox="0 0 123 123" fill="none" xmlns="http://www.w3.org/2000/svg">
<rect x="0.491089" width="122.509" height="122.509" rx="50" fill="#9DB7D6"/>
<path fill-rule="evenodd" clip-rule="evenodd" d="M59.7401 85.1912H63.9068C63.9068 85.1912 65.1657 85.0516 65.8082 84.353C66.3998 83.7118 66.3807 82.5073 66.3807 82.5073C66.3807 82.5073 66.2992 76.8684 68.8941 76.0383C71.452 75.2202 74.7366 81.4879 78.2183 83.8977C80.851 85.7219 82.8518 85.3218 82.8518 85.3218L92.1607 85.1912C92.1607 85.1912 97.0303 84.8884 94.7212 81.027C94.5322 80.7109 93.3766 78.1705 87.7999 72.9496C81.9629 67.4859 82.7447 68.3695 89.776 58.918C94.0583 53.1617 95.7698 49.6476 95.2351 48.1425C94.725 46.7089 91.5759 47.0878 91.5759 47.0878L81.0944 47.1537C81.0944 47.1537 80.3172 47.0468 79.7408 47.3942C79.1781 47.7349 78.8154 48.529 78.8154 48.529C78.8154 48.529 77.1566 52.9831 74.9439 56.7712C70.2769 64.7647 68.4108 65.1866 67.648 64.6902C65.8736 63.5333 66.3166 60.0432 66.3166 57.5637C66.3166 49.8175 67.4811 46.5877 64.0479 45.7517C62.9088 45.4739 62.07 45.2907 59.1566 45.2611C55.4167 45.222 52.251 45.2725 50.4588 46.1582C49.2664 46.7471 48.3465 48.0594 48.9067 48.1348C49.5995 48.2283 51.1685 48.5615 52.0005 49.7039C53.0745 51.1777 53.0367 54.4874 53.0367 54.4874C53.0367 54.4874 53.6534 63.6061 51.5953 64.739C50.1824 65.5156 48.2443 63.9295 44.0833 56.6779C41.9512 52.9634 40.3415 48.8573 40.3415 48.8573C40.3415 48.8573 40.0311 48.0899 39.4775 47.6796C38.8057 47.1823 37.8669 47.0239 37.8669 47.0239L27.9068 47.0897C27.9068 47.0897 26.4116 47.1317 25.8627 47.7874C25.3744 48.3706 25.8239 49.577 25.8239 49.577C25.8239 49.577 33.6216 67.9763 42.4509 77.2483C50.5468 85.7493 59.7401 85.1912 59.7401 85.1912Z" fill="#212E3D"/>
</svg>
